M48
;DRILL file {KiCad (5.0.1)-4} date 26.12.2020 19:52:58
;FORMAT={-:-/ absolute / inch / decimal}
FMAT,2
INCH,TZ
T1C0.0315
T2C0.0394
%
G90
G05
M72
T1
X0.7953Y-1.1756
X0.7953Y-1.7756
X0.8953Y-1.1756
X0.8953Y-1.7756
X0.9953Y-1.1756
X0.9953Y-1.7756
X1.0953Y-1.1756
X1.0953Y-1.7756
X1.1953Y-1.1756
X1.1953Y-1.7756
X1.2953Y-1.1756
X1.2953Y-1.7756
X1.3953Y-1.1756
X1.3953Y-1.7756
X1.4953Y-1.1756
X1.4953Y-1.7756
X1.5953Y-1.1756
X1.5953Y-1.7756
X1.6953Y-1.1756
X1.6953Y-1.7756
X1.7953Y-1.1756
X1.7953Y-1.7756
X1.8953Y-1.1756
X1.8953Y-1.7756
X1.9953Y-1.1756
X1.9953Y-1.7756
X2.0953Y-1.1756
X2.0953Y-1.7756
X2.1953Y-1.1756
X2.1953Y-1.7756
T2
X2.0276Y-2.0118
X2.1276Y-2.0118
X2.2276Y-2.0118
X1.6496Y-2.0118
X1.7496Y-2.0118
X1.8496Y-2.0118
T0
M30
